<svg width="26" height="30" viewBox="0 0 26 30" fill="none" xmlns="http://www.w3.org/2000/svg">
<path d="M25.1875 16.875H0.8125C0.365625 16.875 0 17.2969 0 17.8125V19.6875C0 20.2031 0.365625 20.625 0.8125 20.625H25.1875C25.6344 20.625 26 20.2031 26 19.6875V17.8125C26 17.2969 25.6344 16.875 25.1875 16.875ZM25.1875 9.375H0.8125C0.365625 9.375 0 9.79687 0 10.3125V12.1875C0 12.7031 0.365625 13.125 0.8125 13.125H25.1875C25.6344 13.125 26 12.7031 26 12.1875V10.3125C26 9.79687 25.6344 9.375 25.1875 9.375Z" fill="white"/>
</svg>
